<svg xmlns="http://www.w3.org/2000/svg" width="900" height="150" viewBox="0 0 900 150"><rect width="100%" height="100%" fill="#DDDDDD"/><path fill="#999999" d="M309.2 83.305q.83 0 1.47.64l3.97 4.31q-3.3 4.09-8.12 6.27-4.82 2.17-11.57 2.17-6.03 0-10.85-2.06-4.82-2.06-8.23-5.74-3.42-3.68-5.23-8.77-1.82-5.1-1.82-11.14 0-6.12 1.95-11.2 1.95-5.08 5.49-8.75 3.54-3.68 8.46-5.72 4.91-2.04 10.87-2.04 5.93 0 10.52 1.94 4.59 1.96 7.82 5.11l-3.38 4.68q-.3.45-.77.79-.46.34-1.29.34-.56 0-1.16-.32-.6-.32-1.31-.79-.72-.47-1.65-1.03-.94-.56-2.18-1.03-1.24-.47-2.87-.79-1.63-.32-3.77-.32-3.63 0-6.65 1.3-3.02 1.29-5.2 3.75-2.17 2.45-3.37 6-1.2 3.54-1.2 8.08 0 4.57 1.29 8.14 1.3 3.56 3.51 6 2.21 2.43 5.21 3.73 3 1.29 6.45 1.29 2.06 0 3.73-.22 1.67-.23 3.08-.72 1.4-.49 2.66-1.25 1.26-.77 2.49-1.9.38-.34.79-.54.41-.21.86-.21Zm11.03-42.94h9.26v55.73h-9.26v-55.73Zm18.82 17.25h9.3v38.48h-9.3v-38.48Zm10.58-11.21q0 1.2-.49 2.25t-1.29 1.84q-.81.79-1.9 1.26-1.08.46-2.32.46-1.2 0-2.27-.46-1.07-.47-1.86-1.26-.78-.79-1.25-1.84t-.47-2.25q0-1.23.47-2.32.47-1.09 1.25-1.88.79-.78 1.86-1.25t2.27-.47q1.24 0 2.32.47 1.09.47 1.9 1.25.8.79 1.29 1.88.49 1.09.49 2.32Zm16.2 12.9.64 3.04q1.16-1.16 2.45-2.16 1.3-.99 2.74-1.68 1.44-.7 3.09-1.09 1.65-.39 3.6-.39 3.15 0 5.59 1.06 2.44 1.07 4.07 3 1.63 1.94 2.47 4.62.85 2.68.85 5.9v24.49h-9.26v-24.49q0-3.52-1.62-5.45-1.61-1.94-4.91-1.94-2.4 0-4.5 1.09t-3.97 2.97v27.82h-9.27v-38.48h5.67q1.8 0 2.36 1.69Zm34.57-1.69h9.3v38.48h-9.3v-38.48Zm10.58-11.21q0 1.2-.49 2.25t-1.29 1.84q-.81.79-1.9 1.26-1.08.46-2.32.46-1.2 0-2.27-.46-1.07-.47-1.86-1.26-.78-.79-1.25-1.84t-.47-2.25q0-1.23.47-2.32.47-1.09 1.25-1.88.79-.78 1.86-1.25t2.27-.47q1.24 0 2.32.47 1.09.47 1.9 1.25.8.79 1.29 1.88.49 1.09.49 2.32Zm38.17 15.98-2.43 3.37q-.42.53-.81.83-.39.3-1.14.3-.72 0-1.39-.43-.68-.43-1.61-.98-.94-.54-2.24-.97-1.29-.43-3.2-.43-2.44 0-4.28.88-1.83.88-3.05 2.53-1.22 1.65-1.82 3.99-.6 2.35-.6 5.31 0 3.07.65 5.47.66 2.4 1.9 4.03 1.24 1.64 3 2.48 1.76.84 3.97.84 2.22 0 3.58-.54 1.37-.54 2.31-1.2.94-.66 1.63-1.2.7-.54 1.56-.54 1.12 0 1.69.86l2.66 3.37q-1.54 1.8-3.34 3.02-1.8 1.22-3.73 1.95t-3.98 1.03q-2.04.3-4.06.3-3.57 0-6.72-1.33t-5.51-3.88q-2.36-2.55-3.73-6.24-1.37-3.7-1.37-8.42 0-4.24 1.22-7.86t3.58-6.26q2.36-2.64 5.85-4.14 3.49-1.5 8.03-1.5 4.31 0 7.55 1.38 3.25 1.39 5.83 3.98Zm35.93 25.39h21.67v8.32h-31.76v-54.23h10.09v45.91Zm44.44-30.75q4.27 0 7.78 1.38 3.5 1.39 6 3.94 2.49 2.55 3.84 6.23 1.35 3.67 1.35 8.21 0 4.57-1.35 8.25-1.35 3.67-3.84 6.26-2.5 2.59-6 3.98-3.51 1.38-7.78 1.38-4.32 0-7.84-1.38-3.53-1.39-6.02-3.98-2.49-2.59-3.86-6.26-1.37-3.68-1.37-8.25 0-4.54 1.37-8.21 1.37-3.68 3.86-6.23 2.49-2.55 6.02-3.94 3.52-1.38 7.84-1.38Zm0 32.51q4.8 0 7.1-3.23 2.31-3.22 2.31-9.45 0-6.22-2.31-9.48-2.3-3.27-7.1-3.27-4.88 0-7.22 3.28-2.35 3.28-2.35 9.47 0 6.19 2.35 9.43 2.34 3.25 7.22 3.25Zm40.12-13.62q1.73 0 3-.46 1.28-.47 2.12-1.3.84-.82 1.27-1.99.44-1.16.44-2.54 0-2.85-1.71-4.52-1.71-1.67-5.12-1.67t-5.12 1.67q-1.7 1.67-1.7 4.52 0 1.34.43 2.51.43 1.16 1.27 2 .85.85 2.14 1.32 1.29.46 2.98.46Zm10.46 21.9q0-1.12-.67-1.83-.68-.71-1.84-1.11-1.16-.39-2.72-.58-1.55-.19-3.3-.28-1.74-.09-3.6-.17-1.85-.07-3.62-.3-1.53.86-2.49 2.02-.96 1.17-.96 2.7 0 1.02.51 1.9.51.88 1.61 1.52 1.11.63 2.87.99t4.31.36q2.59 0 4.47-.4 1.87-.39 3.09-1.08 1.22-.7 1.78-1.65.56-.96.56-2.09Zm-1.83-38.88h11.06v3.45q0 1.65-1.99 2.02l-3.45.64q.79 1.99.79 4.35 0 2.85-1.15 5.16-1.14 2.3-3.16 3.91-2.03 1.62-4.79 2.5-2.75.88-5.94.88-1.12 0-2.17-.11-1.05-.11-2.07-.3-1.8 1.09-1.8 2.44 0 1.16 1.07 1.7 1.07.55 2.83.77 1.77.22 4.02.28 2.25.06 4.61.25 2.36.18 4.61.65 2.25.47 4.01 1.48 1.77 1.01 2.83 2.76 1.07 1.74 1.07 4.48 0 2.55-1.25 4.95-1.26 2.4-3.64 4.28-2.38 1.87-5.85 3.01-3.47 1.15-7.89 1.15-4.35 0-7.58-.85-3.22-.84-5.36-2.25-2.14-1.4-3.19-3.24-1.05-1.84-1.05-3.82 0-2.71 1.63-4.52 1.63-1.82 4.48-2.91-1.53-.79-2.43-2.1-.9-1.31-.9-3.45 0-.86.31-1.78.32-.92.94-1.82.62-.9 1.56-1.71.94-.8 2.21-1.44-2.92-1.58-4.59-4.2-1.67-2.63-1.67-6.15 0-2.85 1.14-5.16 1.15-2.3 3.19-3.93 2.04-1.63 4.84-2.5 2.79-.86 6.09-.86 2.48 0 4.65.51 2.18.5 3.98 1.48Zm33.93-1.91q4.28 0 7.78 1.38 3.51 1.39 6 3.94 2.5 2.55 3.85 6.23 1.35 3.67 1.35 8.21 0 4.57-1.35 8.25-1.35 3.67-3.85 6.26-2.49 2.59-6 3.98-3.5 1.38-7.78 1.38-4.31 0-7.83-1.38-3.53-1.39-6.02-3.98-2.5-2.59-3.87-6.26-1.36-3.68-1.36-8.25 0-4.54 1.36-8.21 1.37-3.68 3.87-6.23 2.49-2.55 6.02-3.94 3.52-1.38 7.83-1.38Zm0 32.51q4.8 0 7.11-3.23 2.31-3.22 2.31-9.45 0-6.22-2.31-9.48-2.31-3.27-7.11-3.27-4.87 0-7.22 3.28-2.34 3.28-2.34 9.47 0 6.19 2.34 9.43 2.35 3.25 7.22 3.25Z"/></svg>